<svg width="1299" height="1299" xmlns="http://www.w3.org/2000/svg" xmlns:xlink="http://www.w3.org/1999/xlink" xml:space="preserve" overflow="hidden"><g><path d="M60.2499 255.081 60.9832 238.825 63.578 219.5 68.0391 200.765 74.2678 182.764 82.1585 165.623 91.6048 149.451 102.504 134.346 114.758 120.395 128.278 107.686 142.975 96.3033 158.764 86.3396 175.556 77.8914 193.255 71.0618 211.752 65.957 230.919 62.6827 250.613 61.3374 1044.92 61.2499 1061.18 61.9832 1080.5 64.5781 1099.24 69.0392 1117.24 75.2678 1134.38 83.1586 1150.55 92.6049 1165.65 103.504 1179.6 115.759 1192.31 129.278 1203.7 143.975 1213.66 159.764 1222.11 176.556 1228.94 194.255 1234.04 212.752 1237.32 231.919 1238.66 251.614 1238.75 1044.92 1238.02 1061.18 1235.42 1080.5 1230.96 1099.24 1224.73 1117.24 1216.84 1134.38 1207.4 1150.55 1196.5 1165.65 1184.24 1179.6 1170.72 1192.31 1156.03 1203.7 1140.24 1213.66 1123.44 1222.11 1105.74 1228.94 1087.25 1234.04 1068.08 1237.32 1048.39 1238.66 254.08 1238.75 237.824 1238.02 218.5 1235.42 199.765 1230.96 181.763 1224.73 164.622 1216.84 148.451 1207.4 133.346 1196.5 119.395 1184.24 106.686 1170.72 95.3032 1156.03 85.3394 1140.24 76.8913 1123.44 70.0617 1105.74 64.9569 1087.25 61.6826 1068.08 60.3374 1048.39ZM197.662 1041.45 197.609 1047.34 198.125 1053.01 199.185 1058.48 200.767 1063.77 202.853 1068.84 205.42 1073.68 208.439 1078.24 211.875 1082.49 215.69 1086.38 219.843 1089.88 224.297 1092.97 229.023 1095.61 234.006 1097.79 239.245 1099.5 244.759 1100.69 254.08 1101.25 1041.45 1101.34 1047.34 1101.39 1053.01 1100.88 1058.48 1099.82 1063.77 1098.23 1068.84 1096.15 1073.68 1093.58 1078.24 1090.56 1082.49 1087.13 1086.38 1083.31 1089.88 1079.16 1092.97 1074.7 1095.61 1069.98 1097.79 1064.99 1099.5 1059.76 1100.69 1054.24 1101.25 1044.92 1101.34 258.547 1101.39 252.664 1100.87 246.993 1099.82 241.515 1098.23 236.231 1096.15 231.156 1093.58 226.319 1090.56 221.757 1087.12 217.512 1083.31 213.621 1079.16 210.119 1074.7 207.034 1069.98 204.391 1064.99 202.207 1059.76 200.504 1054.24 199.308 1044.92 198.75 257.548 198.662 251.664 198.609 245.993 199.125 240.515 200.185 235.231 201.767 230.155 203.853 225.319 206.42 220.758 209.439 216.512 212.875 212.621 216.69 209.119 220.842 206.034 225.297 203.391 230.023 201.207 235.006 199.504 240.245 198.308 245.759 197.75 255.081Z" fill="#333333"/><path d="M390 543 390.001 962.375" stroke="#333333" stroke-width="137.5" stroke-linecap="round" stroke-linejoin="round" stroke-miterlimit="10" fill="none" fill-rule="evenodd"/><path d="M563 615 563 962.188" stroke="#333333" stroke-width="137.5" stroke-linecap="round" stroke-linejoin="round" stroke-miterlimit="10" fill="none" fill-rule="evenodd"/><path d="M736 519 736 962.438" stroke="#333333" stroke-width="137.5" stroke-linecap="round" stroke-linejoin="round" stroke-miterlimit="10" fill="none" fill-rule="evenodd"/><path d="M909 342 909 965.906" stroke="#333333" stroke-width="137.5" stroke-linecap="round" stroke-linejoin="round" stroke-miterlimit="10" fill="none" fill-rule="evenodd"/></g></svg>