<svg width="1195" height="1133" xmlns="http://www.w3.org/2000/svg" xmlns:xlink="http://www.w3.org/1999/xlink" xml:space="preserve" overflow="hidden"><g transform="translate(-75 -47)"><path d="M84.8129 1076.02 441.575 472.334C452.554 453.756 471.619 441.411 493.064 438.995 514.508 436.578 535.843 444.371 550.681 460.04L864.541 791.477 751.343 811.871 999.722 227.122C1014.57 192.174 1054.93 175.877 1089.88 190.722 1124.83 205.566 1141.12 245.931 1126.28 280.878L877.9 865.627C868.836 886.965 849.628 902.299 826.811 906.409 803.995 910.52 780.643 902.854 764.702 886.021L450.842 554.584 559.949 542.29 203.187 1145.98C183.869 1178.67 141.71 1189.5 109.022 1170.19 76.3341 1150.87 65.4952 1108.71 84.8129 1076.02ZM873.165 173.366C917.698 68.523 1038.79 19.6323 1143.63 64.1654 1248.48 108.699 1297.37 229.792 1252.83 334.634 1208.3 439.477 1087.21 488.368 982.366 443.835 877.523 399.302 828.632 278.208 873.165 173.366Z" fill="#B3B3B3"/></g></svg>