<svg width="1299" height="1299" xmlns="http://www.w3.org/2000/svg" xmlns:xlink="http://www.w3.org/1999/xlink" xml:space="preserve" overflow="hidden"><g><path d="M60.2499 255.081 60.9832 238.825 63.578 219.5 68.0391 200.765 74.2678 182.764 82.1585 165.623 91.6048 149.451 102.504 134.346 114.758 120.395 128.278 107.686 142.975 96.3033 158.764 86.3396 175.556 77.8914 193.255 71.0618 211.752 65.957 230.919 62.6827 250.613 61.3374 1044.92 61.2499 1061.18 61.9832 1080.5 64.5781 1099.24 69.0392 1117.24 75.2678 1134.38 83.1586 1150.55 92.6049 1165.65 103.504 1179.6 115.759 1192.31 129.278 1203.7 143.975 1213.66 159.764 1222.11 176.556 1228.94 194.255 1234.04 212.752 1237.32 231.919 1238.66 251.614 1238.75 1044.92 1238.02 1061.18 1235.42 1080.5 1230.96 1099.24 1224.73 1117.24 1216.84 1134.38 1207.4 1150.55 1196.5 1165.65 1184.24 1179.6 1170.72 1192.31 1156.03 1203.7 1140.24 1213.66 1123.44 1222.11 1105.74 1228.94 1087.25 1234.04 1068.08 1237.32 1048.39 1238.66 254.08 1238.75 237.824 1238.02 218.5 1235.42 199.765 1230.96 181.763 1224.73 164.622 1216.84 148.451 1207.4 133.346 1196.5 119.395 1184.24 106.686 1170.72 95.3032 1156.03 85.3394 1140.24 76.8913 1123.44 70.0617 1105.74 64.9569 1087.25 61.6826 1068.08 60.3374 1048.39ZM197.662 1041.45 197.609 1047.34 198.125 1053.01 199.185 1058.48 200.767 1063.77 202.853 1068.84 205.42 1073.68 208.439 1078.24 211.875 1082.49 215.69 1086.38 219.843 1089.88 224.297 1092.97 229.023 1095.61 234.006 1097.79 239.245 1099.5 244.759 1100.69 254.08 1101.25 1041.45 1101.34 1047.34 1101.39 1053.01 1100.88 1058.48 1099.82 1063.77 1098.23 1068.84 1096.15 1073.68 1093.58 1078.24 1090.56 1082.49 1087.13 1086.38 1083.31 1089.88 1079.16 1092.97 1074.7 1095.61 1069.98 1097.79 1064.99 1099.5 1059.76 1100.69 1054.24 1101.25 1044.92 1101.34 258.547 1101.39 252.664 1100.87 246.993 1099.82 241.515 1098.23 236.231 1096.15 231.156 1093.58 226.319 1090.56 221.757 1087.12 217.512 1083.31 213.621 1079.16 210.119 1074.7 207.034 1069.98 204.391 1064.99 202.207 1059.76 200.504 1054.24 199.308 1044.92 198.75 257.548 198.662 251.664 198.609 245.993 199.125 240.515 200.185 235.231 201.767 230.155 203.853 225.319 206.42 220.758 209.439 216.512 212.875 212.621 216.69 209.119 220.842 206.034 225.297 203.391 230.023 201.207 235.006 199.504 240.245 198.308 245.759 197.75 255.081Z" fill="#333333"/><path d="M0 0 0.000360892 886.998" stroke="#333333" stroke-width="137.5" stroke-linecap="round" stroke-linejoin="round" stroke-miterlimit="10" fill="none" fill-rule="evenodd" transform="matrix(1 0 0 -1 823 1148)"/><path d="M0 0 0.000360892 900.017" stroke="#333333" stroke-width="137.5" stroke-linecap="round" stroke-linejoin="round" stroke-miterlimit="10" fill="none" fill-rule="evenodd" transform="matrix(1 0 0 -1 480 1161.02)"/><path d="M144 774 1170.68 774" stroke="#333333" stroke-width="137.5" stroke-linecap="round" stroke-linejoin="round" stroke-miterlimit="10" fill="none" fill-rule="evenodd"/><path d="M129 254.001C129 185.517 184.517 130 253 130L1046 130C1114.48 130 1170 185.517 1170 254.001L1170 254.001C1170 322.484 1114.48 378.001 1046 378.001L253 378C184.517 378 129 322.483 129 253.999Z" fill="#333333" fill-rule="evenodd"/><path d="M197.75 254.001 60.3374 250.533 60.9776 237.855 63.5561 218.638 67.9905 200.006 74.1829 182.104 82.028 165.058 91.4202 148.975 102.257 133.953 114.442 120.079 127.885 107.439 142.498 96.1189 158.198 86.2093 174.896 77.8066 192.496 71.0133 210.889 65.9351 229.949 62.6771 249.533 61.3374 1046 61.2499 1062.15 61.9776 1081.36 64.5562 1100 68.9906 1117.9 75.183 1134.94 83.0282 1151.03 92.4205 1166.05 103.257 1179.92 115.442 1192.56 128.885 1203.88 143.499 1213.79 159.199 1222.19 175.897 1228.99 193.497 1234.07 211.889 1237.32 230.95 1238.66 250.534C1239.61 269.346 1232.8 287.723 1219.83 301.373 1206.85 315.023 1188.84 322.751 1170 322.751L1170 322.751 1238.66 257.468 1238.02 270.146 1235.44 289.364 1231.01 307.995 1224.82 325.897 1216.97 342.944 1207.58 359.026 1196.74 374.048 1184.56 387.922 1171.12 400.562 1156.5 411.882 1140.8 421.792 1124.1 430.195 1106.5 436.988 1088.11 442.066 1069.05 445.324 1049.47 446.664 253 446.75 236.855 446.022 217.637 443.444 199.006 439.009 181.104 432.817 164.057 424.972 147.975 415.58 132.952 404.743 119.079 392.558 106.439 379.115 95.1187 364.501 85.2091 348.801 76.8064 332.103 70.0131 314.503 64.935 296.11 61.6771 277.05 60.3374 257.467 197.75 253.999ZM60.2499 253.999C60.2499 216.705 89.9835 186.212 127.266 185.271 164.548 184.331 195.782 213.286 197.662 250.532L197.603 256.306 198.103 261.87 199.136 267.244 200.682 272.429 202.723 277.41 205.236 282.158 208.192 286.636 211.559 290.805 215.297 294.626 219.366 298.066 223.731 301.096 228.363 303.694 233.247 305.841 238.382 307.518 243.789 308.697 253 309.25 1042.53 309.339 1048.31 309.398 1053.87 308.898 1059.24 307.865 1064.43 306.319 1069.41 304.278 1074.16 301.766 1078.64 298.809 1082.8 295.442 1086.63 291.705 1090.07 287.635 1093.1 283.27 1095.69 278.638 1097.84 273.754 1099.52 268.619 1100.7 263.212 1101.34 250.533C1103.18 213.958 1133.38 185.251 1170 185.251L1170 185.251 1101.34 257.467 1101.4 251.695 1100.9 246.131 1099.86 240.756 1098.32 235.571 1096.28 230.59 1093.77 225.843 1090.81 221.365 1087.44 217.196 1083.7 213.374 1079.63 209.934 1075.27 206.904 1070.64 204.306 1065.75 202.159 1060.62 200.482 1055.21 199.303 1046 198.75 256.467 198.662 250.694 198.603 245.13 199.103 239.756 200.136 234.571 201.682 229.59 203.723 224.842 206.236 220.364 209.192 216.195 212.559 212.374 216.297 208.934 220.366 205.904 224.731 203.306 229.364 201.159 234.247 199.482 239.382 198.303 244.789 197.662 257.468C195.782 294.714 164.548 323.669 127.266 322.729 89.9836 321.788 60.2499 291.295 60.2499 254.001Z" fill="#333333"/><path d="M60.2499 505.924 60.9978 489.377 63.6358 469.77 68.1669 450.762 74.4912 432.5 82.5016 415.111 92.0902 398.705 103.153 383.38 115.591 369.228 129.312 356.335 144.228 344.789 160.252 334.683 177.293 326.115 195.253 319.19 214.022 314.015 233.471 310.698 253.456 309.338 1042.08 309.25 1058.62 309.998 1078.23 312.636 1097.24 317.167 1115.5 323.491 1132.89 331.502 1149.3 341.091 1164.62 352.153 1178.77 364.591 1191.67 378.312 1203.21 393.228 1213.32 409.252 1221.89 426.293 1228.81 444.253 1233.99 463.022 1237.3 482.472 1238.66 502.456 1238.75 1042.08 1238 1058.62 1235.36 1078.23 1230.83 1097.24 1224.51 1115.5 1216.5 1132.89 1206.91 1149.3 1195.85 1164.62 1183.41 1178.77 1169.69 1191.67 1154.77 1203.21 1138.75 1213.32 1121.71 1221.89 1103.75 1228.81 1084.98 1233.99 1065.53 1237.3 1045.54 1238.66 256.923 1238.75 240.377 1238 220.77 1235.36 201.762 1230.83 183.5 1224.51 166.11 1216.5 149.704 1206.91 134.38 1195.85 120.228 1183.41 107.335 1169.69 95.7887 1154.77 85.6826 1138.75 77.1148 1121.71 70.1896 1103.75 65.0147 1084.98 61.6973 1065.53 60.3374 1045.54ZM197.662 1038.61 197.623 1044.78 198.183 1050.74 199.313 1056.49 200.991 1062.03 203.197 1067.36 205.906 1072.43 209.088 1077.21 212.708 1081.66 216.724 1085.73 221.096 1089.4 225.784 1092.62 230.759 1095.39 236.003 1097.66 241.515 1099.44 247.311 1100.68 256.923 1101.25 1038.61 1101.34 1044.78 1101.38 1050.74 1100.82 1056.49 1099.69 1062.03 1098.01 1067.36 1095.8 1072.43 1093.09 1077.21 1089.91 1081.66 1086.29 1085.73 1082.28 1089.4 1077.9 1092.62 1073.22 1095.39 1068.24 1097.66 1063 1099.44 1057.49 1100.68 1051.69 1101.25 1042.08 1101.34 509.392 1101.38 503.217 1100.82 497.263 1099.69 491.513 1098.01 485.967 1095.8 480.643 1093.09 475.572 1089.91 470.792 1086.29 466.345 1082.28 462.27 1077.9 458.604 1073.22 455.378 1068.24 452.615 1063 450.335 1057.49 448.562 1051.69 447.323 1042.08 446.75 260.39 446.663 254.216 446.624 248.263 447.183 242.513 448.313 236.967 449.991 231.643 452.197 226.572 454.906 221.792 458.088 217.344 461.708 213.27 465.724 209.604 470.096 206.378 474.785 203.614 479.76 201.335 485.004 199.562 490.515 198.323 496.311 197.75 505.924Z" fill="#333333"/></g></svg>