<svg width="1299" height="1299" xmlns="http://www.w3.org/2000/svg" xmlns:xlink="http://www.w3.org/1999/xlink" xml:space="preserve" overflow="hidden"><g><path d="M649.5 96.9999 1164 562.554 1164 841.369 1164 1001.81 1164 1093.87C1164 1128.74 1135.72 1157 1100.84 1157L848.196 1157C813.312 1157 785.033 1128.74 785.033 1093.87L785.033 1093.43 785.033 1001.81 785.033 841.806C785.033 806.7 756.559 778.241 721.433 778.241L577.567 778.241C542.441 778.241 513.967 806.7 513.967 841.806L513.967 1001.81 513.967 1093.43 513.967 1093.87C513.967 1128.74 485.688 1157 450.804 1157L198.162 1157C163.279 1157 135 1128.74 135 1093.87L135 841.369 135.001 841.366 135.001 562.554Z" stroke="#B3B3B3" stroke-width="91.6667" stroke-linecap="round" stroke-linejoin="round" stroke-miterlimit="10" fill="none" fill-rule="evenodd"/></g></svg>