<svg width="1087" height="1085" xmlns="http://www.w3.org/2000/svg" xmlns:xlink="http://www.w3.org/1999/xlink" xml:space="preserve" overflow="hidden"><g transform="translate(-106 -107)"><path d="M106.167 272.428 106.842 257.906 109.118 241.444 112.98 225.5 118.344 210.188 125.122 195.61 133.225 181.858 142.566 169.013 153.062 157.153 164.634 146.354 177.207 136.691 190.704 128.243 205.05 121.093 220.161 115.328 235.946 111.037 252.302 108.308 269.117 107.225 1027.57 107.167 1042.09 107.842 1058.56 110.118 1074.5 113.98 1089.81 119.344 1104.39 126.122 1118.14 134.225 1130.99 143.566 1142.85 154.062 1153.65 165.634 1163.31 178.207 1171.76 191.705 1178.91 206.05 1184.67 221.161 1188.96 236.946 1191.69 253.303 1192.78 270.117 1192.83 1026.57 1192.16 1041.09 1189.88 1057.56 1186.02 1073.5 1180.66 1088.81 1173.88 1103.39 1165.77 1117.14 1156.43 1129.99 1145.94 1141.85 1134.37 1152.65 1121.79 1162.31 1108.3 1170.76 1093.95 1177.91 1078.84 1183.67 1063.05 1187.96 1046.7 1190.69 1029.88 1191.78 271.428 1191.83 256.906 1191.16 240.444 1188.88 224.5 1185.02 209.188 1179.66 194.61 1172.88 180.858 1164.77 168.013 1155.43 156.153 1144.94 145.354 1133.37 135.691 1120.79 127.243 1107.3 120.093 1092.95 114.328 1077.84 110.037 1062.05 107.308 1045.7 106.225 1028.88ZM197.775 1024.26 197.925 1031.87 198.816 1039.23 200.41 1046.33 202.677 1053.17 205.586 1059.7 209.102 1065.9 213.189 1071.71 217.806 1077.1 222.909 1082.02 228.452 1086.43 234.393 1090.29 240.695 1093.57 247.328 1096.24 254.274 1098.27 261.529 1099.61 271.428 1100.17 1025.26 1100.22 1032.87 1100.07 1040.23 1099.18 1047.33 1097.59 1054.17 1095.32 1060.7 1092.41 1066.9 1088.9 1072.71 1084.81 1078.1 1080.19 1083.02 1075.09 1087.43 1069.55 1091.29 1063.61 1094.57 1057.31 1097.24 1050.67 1099.27 1043.73 1100.61 1036.47 1101.17 1026.57 1101.23 274.74 1101.07 267.133 1100.18 259.773 1098.59 252.667 1096.32 245.833 1093.41 239.299 1089.9 233.103 1085.81 227.287 1081.19 221.898 1076.09 216.977 1070.55 212.568 1064.61 208.706 1058.31 205.426 1051.67 202.759 1044.73 200.735 1037.47 199.392 1027.57 198.833 273.74 198.775 266.132 198.925 258.773 199.816 251.667 201.41 244.833 203.677 238.299 206.586 232.103 210.102 226.287 214.189 220.897 218.806 215.977 223.909 211.568 229.452 207.706 235.393 204.426 241.695 201.759 248.328 199.735 255.274 198.392 262.529 197.833 272.428Z" fill="#B3B3B3"/><path d="M563 698 563 963.127" stroke="#B3B3B3" stroke-width="91.6667" stroke-linecap="round" stroke-linejoin="round" stroke-miterlimit="10" fill="none" fill-rule="evenodd"/><path d="M736 625 736 963.627" stroke="#B3B3B3" stroke-width="91.6667" stroke-linecap="round" stroke-linejoin="round" stroke-miterlimit="10" fill="none" fill-rule="evenodd"/><path d="M909 490 909 966.44" stroke="#B3B3B3" stroke-width="91.6667" stroke-linecap="round" stroke-linejoin="round" stroke-miterlimit="10" fill="none" fill-rule="evenodd"/><path d="M465.04 516.558C442.071 498.475 412.238 489.998 383.968 481.835L383.968 330.007C411.416 332.417 437.066 343.689 456.41 361.842L489.028 332.959C461.113 306.72 423.707 290.914 383.968 288.565L383.968 234 343.195 234 343.195 290.951C329.233 293.462 315.762 297.908 303.237 304.137 251.727 330.07 225.428 390.977 246.562 442.277 262.939 481.835 302.422 499.479 343.195 512.728L343.195 677.114C311.595 673.535 285.365 656.77 263.619 635.861L231 664.682C246.531 680.966 265.05 694.592 285.704 704.931 303.757 712.865 323.255 717.615 343.195 718.933L343.195 774.001 383.968 774.001 383.968 717.489C430.722 710.268 473.67 683.707 492.154 642.14 510.639 600.573 503.911 547.263 465.04 516.558ZM309.217 452.072C271.841 422.938 280.948 366.552 320.566 343.193 327.588 339.032 335.204 335.798 343.195 333.586L343.195 469.779C330.892 465.644 319.412 459.662 309.217 452.072ZM432.149 651.872C418.886 663.854 402.152 672.031 383.968 675.419L383.968 525.412C411.151 534.014 442.343 544.94 453.419 571.689 464.496 598.438 453.352 631.905 432.149 651.872Z" fill="#B3B3B3" fill-rule="evenodd"/></g></svg>