<svg width="1299" height="1299" xmlns="http://www.w3.org/2000/svg" xmlns:xlink="http://www.w3.org/1999/xlink" xml:space="preserve" overflow="hidden"><g><path d="M504.061 172.802C436.008 25.9988 126.142-52.1757 52.1918 39.1789-21.7585 130.534-15.4067 574.126 60.3584 720.929 139.299 760.016 320.319 733.656 506.783 920 508.145 724.565 509.505 346.876 504.061 172.802Z" stroke="#B3B3B3" stroke-width="91.6667" stroke-linecap="round" stroke-linejoin="round" stroke-miterlimit="10" fill="none" fill-rule="evenodd" transform="matrix(-1 0 0 1 1158 183)"/><path d="M646.053 355.802C577.866 208.999 267.39 130.824 193.294 222.179 119.199 313.533 125.563 757.125 201.477 903.929 280.573 943.016 461.949 916.655 648.781 1103 650.145 907.565 651.508 529.875 646.053 355.802Z" stroke="#B3B3B3" stroke-width="91.6667" stroke-linecap="round" stroke-linejoin="round" stroke-miterlimit="10" fill="none" fill-rule="evenodd"/></g></svg>