<svg width="1299" height="1299" xmlns="http://www.w3.org/2000/svg" xmlns:xlink="http://www.w3.org/1999/xlink" xml:space="preserve" overflow="hidden"><g><path d="M650 97.5001 1164.5 563.054 1164.5 841.868 1164.5 1002.31 1164.5 1094.37C1164.5 1129.24 1136.22 1157.5 1101.34 1157.5L848.696 1157.5C813.812 1157.5 785.533 1129.24 785.533 1094.37L785.533 1093.93 785.533 1002.31 785.533 842.306C785.533 807.2 757.059 778.741 721.933 778.741L578.067 778.741C542.941 778.741 514.467 807.2 514.467 842.306L514.467 1002.31 514.467 1093.93 514.467 1094.37C514.467 1129.24 486.188 1157.5 451.304 1157.5L198.662 1157.5C163.779 1157.5 135.5 1129.24 135.5 1094.37L135.5 841.868 135.5 841.866 135.5 563.054Z" stroke="#333333" stroke-width="114.583" stroke-linecap="round" stroke-linejoin="round" stroke-miterlimit="10" fill="none" fill-rule="evenodd"/></g></svg>