<svg width="1299" height="1299" xmlns="http://www.w3.org/2000/svg" xmlns:xlink="http://www.w3.org/1999/xlink" xml:space="preserve" overflow="hidden"><g><path d="M446.793 174.465 453.266 199.302 446.193 185.744 440.32 176.975 433.315 168.059 425.177 159.067 415.935 150.084 405.642 141.194 394.366 132.478 382.19 124.008 369.205 115.851 355.505 108.064 341.19 100.697 326.361 93.7966 311.122 87.4017 295.576 81.5483 279.829 76.2682 263.986 71.5899 248.156 67.5387 232.449 64.1369 216.977 61.4034 201.855 59.3533 187.202 57.9971 173.144 57.339 159.809 57.3752 147.335 58.0908 135.863 59.4549 125.543 61.4153 116.521 63.8902 108.936 66.7596 102.894 69.8591 98.4404 72.9832 95.5072 75.9123 101.486 70.4106 93.8768 78.4815 94.5965 78.1196 93.4643 80.0791 92.0021 82.8131 90.3088 86.2929 88.4618 90.4806 86.5206 95.335 84.5307 100.815 82.5268 106.882 80.5353 113.498 78.5767 120.631 74.6824 136.889 71.2415 154.204 68.123 173.045 65.3653 193.229 62.9931 214.586 61.0219 236.958 59.4618 260.195 58.3191 284.156 57.5974 308.7 57.2985 333.692 57.4229 358.998 57.9699 384.486 58.9382 410.024 60.3253 435.483 62.1281 460.731 64.3427 485.637 66.964 510.068 69.9855 533.889 73.399 556.965 77.1941 579.156 81.3566 600.316 85.8675 620.295 90.7004 638.935 95.8175 656.066 98.2779 663.428 100.944 670.875 103.641 677.844 106.353 684.304 109.061 690.228 111.738 695.582 83.9679 668.728 91.6647 672.209 96.7016 674.01 102.847 675.928 110.051 677.905 118.251 679.909 127.38 681.932 137.373 683.984 148.169 686.088 159.716 688.277 171.962 690.592 184.865 693.077 198.382 695.782 212.477 698.758 227.112 702.057 242.257 705.736 257.876 709.849 273.939 714.453 290.414 719.604 307.27 725.357 324.475 731.768 341.996 738.892 359.803 746.783 377.862 755.494 396.142 765.075 414.61 775.578 433.233 787.049 451.982 799.537 470.825 813.087 489.732 827.743 508.677 843.548 527.632 860.546 546.572 878.779 449.493 919.612 449.62 900.768 449.746 880.95 449.87 860.205 449.99 838.605 450.104 816.219 450.213 793.12 450.314 769.377 450.407 745.063 450.489 720.246 450.56 694.999 450.664 643.48 450.708 591.102 450.683 538.418 450.577 485.996 450.382 434.403 450.249 409.125 450.088 384.242 449.901 359.851 449.685 336.025 449.44 312.835 449.163 290.354 448.855 268.655 448.513 247.809 448.137 227.892 447.725 208.978 447.278 191.143ZM561.825 188.27 562.282 206.488 562.7 225.73 563.081 245.932 563.426 267.026 563.738 288.946 564.017 311.622 564.264 334.987 564.481 358.971 564.669 383.505 564.83 408.519 564.965 433.971 565.16 485.766 565.266 538.363 565.292 591.199 565.247 643.711 565.143 695.322 565.072 720.627 564.989 745.498 564.896 769.865 564.795 793.659 564.686 816.807 564.571 839.24 564.451 860.888 564.327 881.679 564.201 901.543 564.074 920.387C563.919 943.304 550.121 963.924 528.996 972.81 507.871 981.696 483.484 977.137 466.995 961.221L451.011 945.743 435.14 931.422 419.394 918.197 403.781 906.009 388.309 894.8 372.983 884.513 357.808 875.091 342.789 866.48 327.929 858.625 313.231 851.475 298.698 844.98 284.333 839.09 270.139 833.757 256.12 828.935 242.28 824.576 228.623 820.636 215.152 817.068 201.871 813.826 188.782 810.864 175.888 808.136 163.189 805.592 150.682 803.182 138.361 800.853 126.218 798.549 114.239 796.207 102.403 793.76 90.6881 791.128 79.0636 788.219 67.4978 784.923 55.9632 781.107 44.4457 776.611 36.7489 773.129C24.6624 767.663 14.8474 758.172 8.97869 746.276L4.65507 737.438 0.565056 728.329-3.31588 718.947-7.00697 709.293-10.5234 699.367-14.04 688.634-20.2572 667.532-25.9293 645.411-31.09 622.341-35.7617 598.399-39.9595 573.674-43.6935 548.257-46.9702 522.248-49.7938 495.746-52.1668 468.856-54.0903 441.682-55.5642 414.331-56.5878 386.909-57.1592 359.524-57.2761 332.281-56.9351 305.287-56.1316 278.646-54.86 252.458-53.1125 226.824-50.8789 201.838-48.1452 177.586-44.8918 154.151-41.0902 131.6-36.6978 109.986-31.8416 90.0177-29.0798 80.1238-26.1202 70.4788-22.9417 61.0783-19.5174 51.9152-15.8121 42.98-11.7798 34.2615-7.36062 25.7482-2.47662 17.4319 2.97178 9.31369 10.5067-0.123682 18.1163-8.19454C19.9806-10.1719 21.9702-12.0026 24.0955-13.6963L38.9708-24.9592 54.7401-34.1145 71.1619-41.4185 88.1046-47.1137 105.501-51.4016 123.313-54.439 141.514-56.3446 160.077-57.2078 178.97-57.0961 198.155-56.0616 217.585-54.1451 237.212-51.3791 256.978-47.7902 276.825-43.4002 296.69-38.2273 316.507-32.286 336.21-25.5881 355.73-18.1418 374.997-9.95246 393.941-1.02125 412.489 8.65479 430.567 19.0838 448.101 30.2797 465.011 42.2633 481.211 55.0631 496.61 68.7152 511.102 83.2629 524.563 98.7541 536.848 115.236 547.781 132.743 554.855 146.302C558.864 153.985 561.077 162.477 561.328 171.14Z" fill="#333333" transform="matrix(-1 0 0 1 1158.5 183.5)"/><path d="M589.285 357.968 595.78 382.844 588.692 369.285 582.809 360.518 575.79 351.602 567.635 342.609 558.373 333.624 548.056 324.731 536.755 316.012 524.551 307.539 511.535 299.379 497.803 291.588 483.454 284.219 468.591 277.315 453.315 270.918 437.732 265.062 421.948 259.779 406.067 255.099 390.199 251.046 374.454 247.642 358.943 244.907 343.783 242.855 329.092 241.498 314.996 240.839 301.624 240.875 289.113 241.591 277.606 242.956 267.251 244.919 258.196 247.397 250.579 250.271 244.51 253.377 240.033 256.509 237.082 259.447 243.066 253.95 235.442 262.021 236.16 261.663 235.026 263.622 233.561 266.355 231.865 269.834 230.016 274.019 228.072 278.872 226.079 284.35 224.072 290.414 222.077 297.029 220.115 304.159 216.214 320.414 212.767 337.725 209.643 356.564 206.88 376.744 204.504 398.098 202.529 420.468 200.966 443.703 199.821 467.661 199.098 492.203 198.799 517.193 198.923 542.497 199.471 567.983 200.441 593.52 201.831 618.977 203.637 644.223 205.856 669.127 208.482 693.556 211.51 717.376 214.93 740.449 218.732 762.637 222.902 783.795 227.421 803.772 232.263 822.409 237.389 839.537 239.854 846.896 242.525 854.342 245.226 861.309 247.943 867.768 250.655 873.689 253.337 879.04 225.548 852.21 233.26 855.692 238.317 857.497 244.483 859.418 251.709 861.397 259.931 863.402 269.083 865.427 279.098 867.479 289.919 869.584 301.489 871.774 313.76 874.088 326.687 876.573 340.229 879.278 354.349 882.253 369.011 885.552 384.182 889.23 399.828 893.342 415.918 897.945 432.421 903.094 449.305 908.846 466.539 915.255 484.09 922.377 501.927 930.266 520.017 938.975 538.328 948.554 556.828 959.054 575.484 970.523 594.265 983.008 613.142 996.556 632.084 1011.21 651.063 1027.01 670.053 1044.01 689.029 1062.24 591.99 1103.11 592.118 1084.27 592.244 1064.45 592.368 1043.7 592.488 1022.1 592.603 999.719 592.712 976.619 592.813 952.877 592.906 928.562 592.988 903.746 593.06 878.499 593.164 826.98 593.208 774.602 593.182 721.919 593.077 669.496 592.882 617.903 592.747 592.626 592.587 567.743 592.399 543.352 592.183 519.526 591.937 496.337 591.66 473.856 591.351 452.156 591.008 431.311 590.631 411.394 590.219 392.48 589.771 374.646ZM704.318 371.768 704.776 389.986 705.194 409.228 705.576 429.43 705.922 450.525 706.234 472.444 706.514 495.121 706.762 518.486 706.979 542.47 707.168 567.004 707.329 592.018 707.464 617.47 707.66 669.266 707.766 721.863 707.791 774.699 707.747 827.212 707.643 878.823 707.571 904.127 707.488 928.999 707.395 953.366 707.294 977.159 707.185 1000.31 707.07 1022.74 706.949 1044.39 706.825 1065.18 706.699 1085.04 706.571 1103.89C706.416 1126.79 692.631 1147.41 671.52 1156.3 650.409 1165.19 626.03 1160.65 609.533 1144.76L593.515 1129.28 577.611 1114.96 561.832 1101.73 546.185 1089.54 530.679 1078.33 515.319 1068.04 500.11 1058.62 485.057 1050 470.163 1042.14 455.431 1034.99 440.865 1028.49 426.466 1022.6 412.24 1017.27 398.189 1012.44 384.317 1008.08 370.628 1004.14 357.127 1000.57 343.816 997.331 330.699 994.369 317.778 991.64 305.052 989.096 292.52 986.686 280.175 984.357 268.009 982.053 256.008 979.712 244.153 977.265 232.419 974.634 220.778 971.726 209.197 968.433 197.648 964.62 186.118 960.128 178.406 956.647C166.317 951.19 156.496 941.707 150.618 929.817L146.284 920.977 142.186 911.866 138.296 902.482 134.597 892.826 131.073 882.899 127.549 872.163 121.319 851.058 115.635 828.935 110.464 805.862 105.782 781.918 101.576 757.19 97.8342 731.771 94.5508 705.76 91.7214 679.256 89.3436 652.364 87.4163 625.188 85.9394 597.835 84.9137 570.411 84.3411 543.024 84.224 515.78 84.5658 488.784 85.3709 462.14 86.6452 435.951 88.3963 410.314 90.6345 385.325 93.3739 361.071 96.6342 337.633 100.444 315.079 104.846 293.461 109.712 273.49 112.48 263.594 115.446 253.947 118.632 244.544 122.064 235.379 125.777 226.441 129.818 217.721 134.247 209.206 139.141 200.889 144.6 192.771 152.147 183.337 159.771 175.266C161.633 173.295 163.634 171.457 165.756 169.77L180.648 158.515 196.434 149.368 212.872 142.07 229.832 136.38 247.247 132.095 265.08 129.06 283.304 127.155 301.892 126.292 320.811 126.404 340.023 127.437 359.483 129.353 379.139 132.118 398.937 135.705 418.815 140.093 438.712 145.264 458.562 151.203 478.297 157.899 497.849 165.343 517.148 173.529 536.123 182.458 554.702 192.131 572.811 202.557 590.375 213.749 607.313 225.73 623.542 238.526 638.968 252.176 653.486 266.721 666.972 282.211 679.281 298.693 690.238 316.202 697.326 329.761C701.347 337.454 703.568 345.96 703.82 354.637Z" fill="#333333"/></g></svg>