<svg width="1299" height="1299" xmlns="http://www.w3.org/2000/svg" xmlns:xlink="http://www.w3.org/1999/xlink" xml:space="preserve" overflow="hidden"><g><path d="M106.167 272.428 106.842 257.906 109.118 241.444 112.98 225.5 118.344 210.188 125.122 195.61 133.225 181.858 142.566 169.013 153.062 157.153 164.634 146.354 177.207 136.691 190.704 128.243 205.05 121.093 220.161 115.328 235.946 111.037 252.302 108.308 269.117 107.225 1027.57 107.167 1042.09 107.842 1058.56 110.118 1074.5 113.98 1089.81 119.344 1104.39 126.122 1118.14 134.225 1130.99 143.566 1142.85 154.062 1153.65 165.634 1163.31 178.207 1171.76 191.704 1178.91 206.05 1184.67 221.161 1188.96 236.946 1191.69 253.303 1192.78 270.117 1192.83 1026.57 1192.16 1041.09 1189.88 1057.56 1186.02 1073.5 1180.66 1088.81 1173.88 1103.39 1165.77 1117.14 1156.43 1129.99 1145.94 1141.85 1134.37 1152.65 1121.79 1162.31 1108.3 1170.76 1093.95 1177.91 1078.84 1183.67 1063.05 1187.96 1046.7 1190.69 1029.88 1191.78 271.428 1191.83 256.906 1191.16 240.444 1188.88 224.5 1185.02 209.188 1179.66 194.61 1172.88 180.858 1164.77 168.013 1155.43 156.153 1144.94 145.354 1133.37 135.691 1120.79 127.243 1107.3 120.093 1092.95 114.328 1077.84 110.037 1062.05 107.308 1045.7 106.225 1028.88ZM197.775 1024.26 197.925 1031.87 198.816 1039.23 200.41 1046.33 202.677 1053.17 205.586 1059.7 209.102 1065.9 213.189 1071.71 217.806 1077.1 222.909 1082.02 228.452 1086.43 234.393 1090.29 240.695 1093.57 247.328 1096.24 254.274 1098.27 261.529 1099.61 271.428 1100.17 1025.26 1100.22 1032.87 1100.07 1040.23 1099.18 1047.33 1097.59 1054.17 1095.32 1060.7 1092.41 1066.9 1088.9 1072.71 1084.81 1078.1 1080.19 1083.02 1075.09 1087.43 1069.55 1091.29 1063.61 1094.57 1057.31 1097.24 1050.67 1099.27 1043.73 1100.61 1036.47 1101.17 1026.57 1101.23 274.739 1101.07 267.133 1100.18 259.773 1098.59 252.667 1096.32 245.833 1093.41 239.299 1089.9 233.103 1085.81 227.287 1081.19 221.897 1076.09 216.977 1070.55 212.568 1064.61 208.706 1058.31 205.426 1051.67 202.759 1044.73 200.735 1037.47 199.392 1027.57 198.833 273.74 198.775 266.132 198.925 258.773 199.816 251.667 201.41 244.833 203.677 238.299 206.586 232.103 210.102 226.287 214.189 220.897 218.806 215.977 223.909 211.568 229.452 207.706 235.393 204.426 241.695 201.759 248.328 199.735 255.274 198.392 262.529 197.833 272.428Z" fill="#B3B3B3"/><path d="M152 269C152 204.935 203.935 153 268 153L1031 153C1095.07 153 1147 204.935 1147 269L1147 269C1147 333.065 1095.07 385 1031 385L268 385C203.935 385 152 333.065 152 269Z" fill="#B3B3B3" fill-rule="evenodd"/><path d="M152 223.167 106.225 266.689 106.824 254.828 109.048 238.707 112.826 223.091 118.075 208.094 124.708 193.816 132.64 180.346 141.783 167.765 152.058 156.149 163.386 145.571 175.695 136.105 188.91 127.829 202.956 120.824 217.751 115.174 233.208 110.967 249.224 108.29 265.688 107.225 1031 107.167 1045.17 107.824 1061.29 110.048 1076.91 113.826 1091.91 119.075 1106.18 125.709 1119.65 133.64 1132.24 142.783 1143.85 153.058 1154.43 164.387 1163.89 176.695 1172.17 189.91 1179.18 203.956 1184.83 218.752 1189.03 234.208 1191.71 250.225 1192.78 266.688 1192.18 283.172 1189.95 299.293 1186.17 314.909 1180.93 329.906 1174.29 344.184 1166.36 357.654 1157.22 370.235 1146.94 381.851 1135.61 392.429 1123.31 401.895 1110.09 410.171 1096.04 417.176 1081.25 422.826 1065.79 427.033 1049.78 429.71 1033.31 430.775 268 430.833 253.828 430.176 237.707 427.952 222.091 424.174 207.094 418.925 192.816 412.291 179.346 404.36 166.765 395.217 155.149 384.942 144.571 373.613 135.105 361.305 126.829 348.09 119.824 334.044 114.174 319.248 109.967 303.792 107.29 287.775 106.225 271.311C105.592 258.771 110.131 246.519 118.784 237.419 127.436 228.319 139.443 223.167 152 223.167ZM152 314.833 197.775 266.689 197.908 273.945 198.746 280.964 200.256 287.742 202.408 294.261 205.172 300.495 208.517 306.409 212.406 311.96 216.802 317.107 221.661 321.806 226.94 326.018 232.599 329.707 238.601 332.843 244.919 335.395 251.537 337.335 258.451 338.626 268 339.167 1028.69 339.225 1035.95 339.092 1042.96 338.254 1049.74 336.744 1056.26 334.592 1062.5 331.828 1068.41 328.483 1073.96 324.594 1079.11 320.198 1083.81 315.339 1088.02 310.06 1091.71 304.401 1094.84 298.399 1097.4 292.081 1099.33 285.463 1100.63 278.549 1101.23 271.312 1101.09 264.055 1100.25 257.036 1098.74 250.258 1096.59 243.739 1093.83 237.505 1090.48 231.591 1086.59 226.04 1082.2 220.893 1077.34 216.194 1072.06 211.982 1066.4 208.292 1060.4 205.157 1054.08 202.605 1047.46 200.665 1040.55 199.374 1031 198.833 270.311 198.775 263.054 198.908 256.035 199.746 249.258 201.256 242.739 203.408 236.504 206.172 230.591 209.517 225.04 213.406 219.893 217.802 215.194 222.661 210.982 227.94 207.292 233.599 204.157 239.601 201.604 245.919 199.665 252.537 198.374 259.451 197.775 271.311C196.544 295.695 176.415 314.833 152 314.833Z" fill="#B3B3B3"/><path d="M0 0 0.000360892 885.444" stroke="#B3B3B3" stroke-width="91.6667" stroke-linecap="round" stroke-linejoin="round" stroke-miterlimit="10" fill="none" fill-rule="evenodd" transform="matrix(1 0 0 -1 823 1146.44)"/><path d="M0 0 0.000360892 885.444" stroke="#B3B3B3" stroke-width="91.6667" stroke-linecap="round" stroke-linejoin="round" stroke-miterlimit="10" fill="none" fill-rule="evenodd" transform="matrix(1 0 0 -1 480 1146.44)"/><path d="M161 774 1131.09 774" stroke="#B3B3B3" stroke-width="91.6667" stroke-linecap="round" stroke-linejoin="round" stroke-miterlimit="10" fill="none" fill-rule="evenodd"/><path d="M106.167 504.013 106.839 489.533 109.109 473.113 112.961 457.208 118.312 441.934 125.072 427.393 133.154 413.674 142.471 400.862 152.94 389.031 164.483 378.259 177.023 368.62 190.487 360.193 204.796 353.061 219.869 347.31 235.614 343.029 251.929 340.306 268.701 339.225 1027.99 339.167 1042.47 339.839 1058.89 342.109 1074.79 345.961 1090.07 351.312 1104.61 358.072 1118.33 366.154 1131.14 375.471 1142.97 385.94 1153.74 397.483 1163.38 410.024 1171.81 423.487 1178.94 437.796 1184.69 452.869 1188.97 468.614 1191.69 484.929 1192.78 501.702 1192.83 1026.99 1192.16 1041.47 1189.89 1057.89 1186.04 1073.79 1180.69 1089.07 1173.93 1103.61 1165.85 1117.33 1156.53 1130.14 1146.06 1141.97 1134.52 1152.74 1121.98 1162.38 1108.51 1170.81 1094.2 1177.94 1079.13 1183.69 1063.39 1187.97 1047.07 1190.69 1030.3 1191.78 271.013 1191.83 256.533 1191.16 240.112 1188.89 224.208 1185.04 208.934 1179.69 194.393 1172.93 180.674 1164.85 167.861 1155.53 156.031 1145.06 145.259 1133.52 135.62 1120.98 127.193 1107.51 120.061 1093.2 114.309 1078.13 110.028 1062.39 107.306 1046.07 106.225 1029.3ZM197.775 1024.68 197.923 1032.24 198.807 1039.56 200.392 1046.62 202.645 1053.42 205.535 1059.92 209.031 1066.08 213.094 1071.86 217.684 1077.22 222.757 1082.12 228.269 1086.5 234.175 1090.34 240.441 1093.61 247.036 1096.26 253.942 1098.27 261.156 1099.61 271.013 1100.17 1025.68 1100.23 1033.24 1100.08 1040.56 1099.19 1047.62 1097.61 1054.42 1095.36 1060.92 1092.46 1067.08 1088.97 1072.86 1084.91 1078.22 1080.32 1083.12 1075.24 1087.5 1069.73 1091.34 1063.82 1094.61 1057.56 1097.26 1050.96 1099.27 1044.06 1100.61 1036.84 1101.17 1026.99 1101.23 506.323 1101.08 498.759 1100.19 491.441 1098.61 484.375 1096.36 477.579 1093.46 471.081 1089.97 464.919 1085.91 459.136 1081.32 453.776 1076.24 448.882 1070.73 444.497 1064.82 440.656 1058.56 437.394 1051.96 434.74 1045.06 432.727 1037.84 431.389 1027.99 430.833 273.324 430.775 265.759 430.923 258.441 431.807 251.375 433.392 244.579 435.645 238.081 438.535 231.919 442.031 226.136 446.095 220.776 450.685 215.882 455.758 211.497 461.269 207.656 467.176 204.394 473.441 201.74 480.036 199.727 486.942 198.389 494.156 197.833 504.013Z" fill="#B3B3B3"/></g></svg>